# xmcd
#
# Track frame offsets:
#	150
#	18373
#	42949
#	61568
#
# Disc length: 1083 seconds
#
# Revision: 0
# Processed by: cddbd v1.5.1PL2 Copyright (c) Steve Scherf et al.
# Submitted via: dBpowerAMP V4.0
#
DISCID=24043904
DTITLE=La Fuertezza - Fandango Night CdS
DYEAR=1997
DGENRE=Latin
TTITLE0=Fandango Night (Radio Edit)
TTITLE1=Fandango Night (Club Mix)
TTITLE2=Llegando (Album Versione)
TTITLE3=Llegando (Club Original Mix)
EXTD=
EXTT0=
EXTT1=
EXTT2=
EXTT3=
PLAYORDER=
